<svg width="32" height="32" xmlns="http://www.w3.org/2000/svg">

 <title/>
 <g>
  <title>background</title>
  <rect fill="none" id="canvas_background" height="402" width="582" y="-1" x="-1"/>
 </g>
 <g>
  <title>Layer 1</title>
  <path fill="#ffffff" id="svg_1" d="m16,9a3,3 0 1 0 -3,-3a3,3 0 0 0 3,3zm0,-4.46a1.46,1.46 0 1 1 -1.46,1.46a1.46,1.46 0 0 1 1.46,-1.46z" class="cls-1"/>
  <path fill="#ffffff" id="svg_2" d="m16,19a3,3 0 1 0 -3,-3a3,3 0 0 0 3,3zm0,-4.46a1.46,1.46 0 1 1 -1.46,1.46a1.46,1.46 0 0 1 1.46,-1.46z" class="cls-1"/>
  <path fill="#ffffff" id="svg_3" d="m16,29a3,3 0 1 0 -3,-3a3,3 0 0 0 3,3zm0,-4.46a1.46,1.46 0 1 1 -1.46,1.46a1.46,1.46 0 0 1 1.46,-1.46z" class="cls-1"/>
 </g>
</svg>