<svg width="18" height="18" xmlns="http://www.w3.org/2000/svg">
 <title/>
 <desc/>

 <g>
  <title>background</title>
  <rect fill="none" id="canvas_background" height="402" width="582" y="-1" x="-1"/>
 </g>
 <g>
  <title>Layer 1</title>
  <path fill="#ffffff" id="Shape" d="m12.5,11l-0.8,0l-0.3,-0.3c1,-1.1 1.6,-2.6 1.6,-4.2c0,-3.6 -2.9,-6.5 -6.5,-6.5c-3.6,0 -6.5,2.9 -6.5,6.5c0,3.6 2.9,6.5 6.5,6.5c1.6,0 3.1,-0.6 4.2,-1.6l0.3,0.3l0,0.8l5,5l1.5,-1.5l-5,-5l0,0zm-6,0c-2.5,0 -4.5,-2 -4.5,-4.5c0,-2.5 2,-4.5 4.5,-4.5c2.5,0 4.5,2 4.5,4.5c0,2.5 -2,4.5 -4.5,4.5l0,0z"/>
 </g>
</svg>